<?xml version="1.0" encoding="UTF-8"?>
<svg width="1200pt" height="1200pt" version="1.1" viewBox="0 0 1200 1200" xmlns="http://www.w3.org/2000/svg">
 <defs>
  <clipPath id="b">
   <path d="m176 176h848v848h-848z"/>
  </clipPath>
  <clipPath id="a">
   <path d="m65.629 600 534.37-534.37 534.37 534.37-534.37 534.37z"/>
  </clipPath>
 </defs>
 <g clip-path="url(#b)">
  <g clip-path="url(#a)">
   <path d="m724.18 475.82c21.75-49.387 34.797-103.26 34.82-140.82 0-87.797-71.199-159-159-159s-159 71.199-159 159c0 37.531 13.047 91.406 34.82 140.82-49.387-21.75-103.26-34.797-140.82-34.82-87.797 0-159 71.199-159 159s71.199 159 159 159c37.531 0 91.406-13.047 140.82-34.82-21.75 49.387-34.797 103.26-34.82 140.82 0 87.797 71.199 159 159 159s159-71.199 159-159c0-37.531-13.047-91.406-34.82-140.82 49.387 21.75 103.26 34.797 140.82 34.82 87.797 0 159-71.199 159-159s-71.199-159-159-159c-37.531 0-91.406 13.047-140.82 34.82z" fill="#3b6af9"/>
  </g>
 </g>
</svg>
